<?xml version="1.0" standalone="no"?>
<!DOCTYPE svg PUBLIC "-//W3C//DTD SVG 20010904//EN"
 "http://www.w3.org/TR/2001/REC-SVG-20010904/DTD/svg10.dtd">
<svg version="1.0" xmlns="http://www.w3.org/2000/svg"
 width="255.000000pt" height="253.000000pt" viewBox="0 0 255.000000 253.000000"
 preserveAspectRatio="xMidYMid meet">

<g transform="translate(0.000000,253.000000) scale(0.100000,-0.100000)"
fill="#000000" stroke="none">
<path d="M622 1404 l3 -849 31 -65 c39 -80 108 -151 188 -193 56 -29 70 -31
179 -35 l117 -4 0 565 c0 384 3 568 10 572 8 5 8 11 0 20 -7 8 -10 99 -10 266
1 281 -4 311 -60 399 -39 60 -89 101 -166 137 -49 22 -75 27 -176 31 l-118 5
2 -849z"/>
<path d="M1308 1403 c7 -3 16 -2 19 1 4 3 -2 6 -13 5 -11 0 -14 -3 -6 -6z"/>
<path d="M1390 1376 c0 -2 8 -10 18 -17 15 -13 16 -12 3 4 -13 16 -21 21 -21
13z"/>
<path d="M1663 785 c-53 -27 -100 -73 -142 -142 -20 -33 -23 -46 -18 -105 8
-89 40 -160 94 -208 137 -120 339 -82 428 81 23 43 28 64 27 112 -3 118 -45
195 -137 252 -41 25 -61 31 -124 33 -66 3 -83 0 -128 -23z"/>
</g>
</svg>
